Coordinates
version=1
nRows=22
nColumns=24
inDegrees=yes

Units are S.I. units (second, meters, Newtons, ...)
Angles are in degrees.

endheader
time	pelvis_tilt	pelvis_list	pelvis_rotation	pelvis_tx	pelvis_ty	pelvis_tz	hip_flexion_r	hip_adduction_r	hip_rotation_r	knee_angle_r	ankle_angle_r	subtalar_angle_r	mtp_angle_r	hip_flexion_l	hip_adduction_l	hip_rotation_l	knee_angle_l	ankle_angle_l	subtalar_angle_l	mtp_angle_l	lumbar_extension	lumbar_bending	lumbar_rotation
      0.91533333	     -7.69443730	      1.54606993	     -2.63893280	     -0.10985582	      1.03659800	      0.29606946	     -1.17493064	     -1.61343927	     -1.10809053	    -15.97820001	     19.33954677	     -1.52842473	      5.78849101	     31.76568466	     -1.91424454	      4.74615120	     -7.64059901	      3.59056507	     -0.66049099	      7.32602024	     -4.10158476	      0.55629916	      7.15422775
      0.91950000	     -7.62685006	      1.57728036	     -2.83105113	     -0.10344742	      1.03560664	      0.29580555	     -1.36540400	     -1.73678016	     -1.15206584	    -16.50558104	     19.57699190	     -1.15158365	      5.81539053	     31.70380025	     -1.93829847	      4.70830867	     -7.85692932	      3.62219683	     -0.61898086	      7.31686704	     -4.13202758	      0.43534027	      7.29509876
      0.92366667	     -7.56311158	      1.60247680	     -3.01466839	     -0.09703324	      1.03463216	      0.29553982	     -1.54340551	     -1.84591159	     -1.10184326	    -17.05347177	     19.74099354	     -0.94297722	      5.85069844	     31.65728331	     -1.95474724	      4.67480146	     -8.17628624	      3.64231256	     -0.58238189	      7.31743564	     -4.16455565	      0.34095324	      7.34202694
      0.92783333	     -7.49953063	      1.63446021	     -3.18807261	     -0.09058254	      1.03367618	      0.29523836	     -1.69498323	     -1.96951342	     -1.07426515	    -17.66304000	     19.88436565	     -0.73723908	      5.89598740	     31.62394776	     -1.94999549	      4.59832762	     -8.59855117	      3.65057974	     -0.54980932	      7.32491573	     -4.17644008	      0.24751524	      7.37878665
      0.93200000	     -7.43792716	      1.67456777	     -3.34007862	     -0.08410707	      1.03274654	      0.29487925	     -1.80988898	     -2.11487321	     -1.12306563	    -18.35069099	     19.97786885	     -0.42798282	      5.98637418	     31.60383702	     -1.91922921	      4.49790867	     -9.10550688	      3.62357168	     -0.42251950	      7.34713298	     -4.19204205	      0.13518694	      7.43366336
      0.93616667	     -7.34815976	      1.72256652	     -3.48811784	     -0.07761816	      1.03189438	      0.29452083	     -1.93495396	     -2.27097235	     -1.13905158	    -19.08175651	     20.05228542	     -0.16129024	      6.10225507	     31.55825318	     -1.87136969	      4.37320668	     -9.68309149	      3.57230139	     -0.30926885	      7.37778861	     -4.23527556	      0.00894718	      7.45041691
      0.94033333	     -7.27296407	      1.76533347	     -3.62088386	     -0.07111289	      1.03103870	      0.29412474	     -2.01585804	     -2.42599868	     -1.17070691	    -19.87648537	     20.09290380	      0.11758198	      6.25239555	     31.54078516	     -1.81593121	      4.23578556	    -10.33734453	      3.49780321	     -0.17884162	      7.41887380	     -4.25389756	     -0.11371243	      7.45304874
      0.94450000	     -7.18693873	      1.81541417	     -3.74906918	     -0.06460292	      1.03023712	      0.29371721	     -2.07964163	     -2.59286559	     -1.18764083	    -20.73042782	     20.09758572	      0.39272319	      6.41614705	     31.51635251	     -1.74635892	      4.08007179	    -11.04588678	      3.39062776	     -0.05331594	      7.46166084	     -4.29020910	     -0.25804707	      7.42735139
      0.94866667	     -7.10924994	      1.84522668	     -3.84206494	     -0.05807693	      1.02943843	      0.29322002	     -2.10745677	     -2.74714440	     -1.27769251	    -21.64881808	     20.04509619	      0.69583343	      6.65752713	     31.51904563	     -1.67440925	      3.93414171	    -11.82360243	      3.27508441	      0.12380184	      7.52298611	     -4.30181579	     -0.35836919	      7.40535436
      0.95283333	     -7.01827269	      1.89292177	     -3.94779540	     -0.05155018	      1.02871114	      0.29275661	     -2.11869011	     -2.92251507	     -1.31368641	    -22.62058785	     19.94468629	      0.97192352	      6.86707005	     31.50408036	     -1.58936132	      3.76302367	    -12.63005137	      3.11770480	      0.24213904	      7.56969805	     -4.33101140	     -0.50747932	      7.33825558
      0.95700000	     -6.95631688	      1.89958621	     -4.00297799	     -0.04502337	      1.02794220	      0.29218676	     -2.07895779	     -3.05516451	     -1.40564503	    -23.63986171	     19.68742591	      1.12277808	      9.91755704	     31.55818720	     -1.52199338	      3.59400448	    -13.53181730	      3.02108493	      0.50165385	      8.19193830	     -4.32059204	     -0.59668897	      7.29522172
      0.96116667	     -6.83566715	      1.94158717	     -4.06592769	     -0.03851556	      1.02734732	      0.29160192	     -2.05718344	     -3.24474984	     -1.52273285	    -24.74326404	     19.47873422	      1.48436343	      9.98371698	     31.51188471	     -1.40954378	      3.48784384	    -14.37093366	      2.79045743	      0.54335389	      8.19544423	     -4.39755464	     -0.72949994	      7.19789840
      0.96533333	     -6.74758875	      1.96278631	     -4.09670080	     -0.03200789	      1.02671079	      0.29094507	     -1.97022506	     -3.41486065	     -1.67214056	    -25.91396344	     19.20465314	      1.80235901	     10.10205691	     31.52480633	     -1.30367923	      3.38778353	    -15.27449992	      2.62906620	      0.65701196	      8.20261635	     -4.42713679	     -0.83918604	      7.09634051
      0.96950000	     -6.67091754	      1.97499337	     -4.11119064	     -0.02551170	      1.02609666	      0.29025038	     -1.83910938	     -3.57809159	     -1.82667204	    -27.14388387	     18.84696455	      2.09239038	     10.26388505	     31.55628735	     -1.19912588	      3.29768061	    -16.20159416	      2.48485884	      0.77469258	      8.20887398	     -4.44288372	     -0.94153770	      6.97896686
      0.97366667	     -6.56144336	      1.99063853	     -4.11669507	     -0.01903494	      1.02558827	      0.28955039	     -1.70958314	     -3.75070786	     -1.98328293	    -28.42688282	     18.38159064	      2.24978522	     13.32639212	     31.55907110	     -1.09146153	      3.15664213	    -17.14983935	      2.39819522	      0.98429137	      8.24248426	     -4.49861332	     -1.03728356	      6.80194959
      0.97783333	     -6.48179908	      2.00002581	     -4.08809815	     -0.01256095	      1.02508317	      0.28874314	     -1.51586518	     -3.92975233	     -2.20553313	    -29.77765169	     17.86850069	      2.57006479	     13.39903394	     31.57130460	     -0.95760605	      3.17557479	    -18.05310837	      2.26226894	      0.98460241	      8.23913373	     -4.52348340	     -1.14116955	      6.70498807
      0.98200000	     -6.39687549	      2.02157259	     -4.05670810	     -0.00610360	      1.02464328	      0.28794007	     -1.28957298	     -4.12522574	     -2.41491833	    -31.18848062	     17.29102634	      2.82014303	     13.52301054	     31.57455490	     -0.81401787	      3.16280541	    -18.95776584	      2.18602146	      1.02533355	      8.23233594	     -4.55395099	     -1.26274978	      6.55305811
      0.98616667	     -6.32309129	      2.03306946	     -4.00600102	      0.00032640	      1.02422219	      0.28710339	     -1.01800908	     -4.31338988	     -2.63898624	    -32.65048472	     16.60088524	      2.94331310	     16.33034831	     31.59698859	     -0.67519433	      3.13775898	    -19.88074376	      2.17581706	      1.10656497	      8.00078022	     -4.57395982	     -1.35261656	      6.29728478
      0.99033333	     -6.23086043	      2.04623621	     -3.93598519	      0.00673519	      1.02389198	      0.28621108	     -0.73526644	     -4.51638749	     -2.89732977	    -34.16567191	     15.88415994	      3.19431186	     16.40217013	     31.57553682	     -0.51557860	      3.18263095	    -20.75258582	      2.17731579	      1.10965561	      7.99392362	     -4.61632380	     -1.45915180	      6.18459707
      0.99450000	     -6.14479064	      2.07990966	     -3.85976660	      0.01313061	      1.02361613	      0.28532847	     -0.40893717	     -4.74464643	     -3.15231667	    -35.73510315	     15.09049767	      3.36017364	     16.55114128	     31.54379124	     -0.33619385	      3.22057044	    -21.59510317	      2.22976402	      1.12006631	      7.97610677	     -4.65118141	     -1.59263332	      5.98399391
      0.99866667	     -6.02133341	      2.07673861	     -3.74154583	      0.01947152	      1.02346793	      0.28439251	     -0.11292235	     -4.93169051	     -3.42303378	    -37.30450314	     14.12517515	      3.39870799	     18.39032679	     31.46935640	     -0.17014867	      3.30775850	    -22.43033229	      2.36916706	      1.17760776	      7.70279257	     -4.75721796	     -1.65251889	      5.57678914
      1.00283333	     -5.96854892	      2.14261622	     -3.67254237	      0.02582571	      1.02325886	      0.28353894	      0.32825640	     -5.20496529	     -3.66441438	    -38.97781325	     13.22377305	      3.49282472	     18.49943465	     31.42218717	      0.03474232	      3.34963905	    -23.17838336	      2.50141362	      1.11752899	      7.68587736	     -4.74802373	     -1.86511860	      5.55561752
